<?xml version="1.0" encoding="iso-8859-1"?>
<!-- Generator: Adobe Illustrator 19.0.0, SVG Export Plug-In . SVG Version: 6.00 Build 0)  -->
<svg version="1.1" id="Layer_1" xmlns="http://www.w3.org/2000/svg" xmlns:xlink="http://www.w3.org/1999/xlink" x="0px" y="0px"
		viewBox="0 0 505 505" style="enable-background:new 0 0 505 505;" xml:space="preserve">
	<circle style="fill:#FFD05B;" cx="252.5" cy="252.5" r="252.5"/>
	
	<g>
		<path style="fill:#324A5E;" d="M310.1,409.7H121.4c-1.8,0-3.3-1.5-3.3-3.3V98.6c0-1.8,1.5-3.3,3.3-3.3h188.8c1.8,0,3.3,1.5,3.3,3.3v307.8C313.5,408.2,312,409.7,310.1,409.7z"/>
		
		<rect x="131.7" y="134.5" style="fill:#FFFFFF;" width="168.1" height="228.7"/>
		
		<circle style="fill:#E6E9EE;" cx="215.7" cy="385.7" r="12.9"/>
		
		<g>
			<path style="fill:#ACB3BA;" d="M245,125.1h-58.5c-1,0-1.8-0.8-1.8-1.8l0,0c0-1,0.8-1.8,1.8-1.8h58.4c1,0,1.8,0.8,1.8,1.8l0,0C246.8,124.2,246,125.1,245,125.1z"/>
			
			<rect x="207.8" y="110.3" style="fill:#ACB3BA;" width="15.8" height="3.7"/>
		</g>
	</g>
	
	<path style="fill:#FF7058;" d="M412.7,161.1H259.8c-9.6,0-17.4,7.8-17.4,17.4V275c0,9.6,7.8,17.4,17.4,17.4h8.7l-3.6,34.6l38.2-34.6h109.6c9.6,0,17.4-7.8,17.4-17.4v-96.5C430.1,168.9,422.3,161.1,412.7,161.1z"/>
</svg>
